<?xml version="1.0"?>
<svg xmlns="http://www.w3.org/2000/svg" viewBox="0 0 24 24" enable-background="new 0 0 24 24">
    <path d="M 15.53125 0.34375 C 12.74625 0.34375 11.90625 0.59375 11.90625 0.59375 C 11.32125 0.79275 10.5105 0.9355 10.1875 1.5625 C 10.0915 1.7515 9.7725 2.44075 9.4375 3.34375 C 9.8955 3.35375 10.288 3.38425 10.625 3.40625 C 10.873 2.79225 11.09225 2.4795 11.15625 2.3125 C 11.24025 2.1145 11.31925 1.5 15.53125 1.5 C 19.74325 1.5 19.83275 2.21075 19.84375 2.21875 C 19.97375 2.58975 20.49425 3.37275 20.90625 4.96875 C 20.90625 4.96875 19.13125 5.53125 15.53125 5.53125 C 15.31825 5.53125 15.1385 5.53525 14.9375 5.53125 C 15.1065 5.94025 15.352 6.5735 15.625 7.3125 C 16.399 7.3125 17.14925 7.84175 17.40625 8.59375 L 17.625 9.21875 C 17.76 9.61275 17.75375 10.03825 17.59375 10.40625 C 18.82075 10.48325 19.3245 10.62125 19.4375 10.65625 L 19.625 10.6875 C 20.257 10.8475 21.309 11.122 21.75 12.125 C 21.815 12.272 21.958 12.584 22.125 13 L 22.34375 13 C 22.68675 13 22.96875 12.719 22.96875 12.375 L 22.96875 7.71875 C 22.96875 7.60575 22.928 7.18475 22.875 7.09375 C 22.875 7.09375 22.7565 6.83925 22.5625 6.28125 L 23.28125 6.28125 C 23.62425 6.28125 23.8045 5.87525 23.6875 5.53125 L 23.46875 4.90625 C 23.35075 4.56325 22.969 4.3125 22.625 4.3125 L 21.90625 4.3125 C 21.45425 3.0285 20.99775 1.88125 20.84375 1.53125 C 20.55975 0.88525 19.625 0.73575 19.125 0.59375 C 19.125 0.59375 18.31625 0.34375 15.53125 0.34375 z M 8.53125 4.34375 C 5.74625 4.34375 4.90625 4.59375 4.90625 4.59375 C 4.32125 4.79275 3.5115 4.9355 3.1875 5.5625 C 3.0595 5.8135 2.584 6.9885 2.125 8.3125 L 1.40625 8.3125 C 1.06325 8.3125 0.6805 8.56225 0.5625 8.90625 L 0.34375 9.53125 C 0.22575 9.87425 0.406 10.28125 0.75 10.28125 L 1.46875 10.28125 C 1.27875 10.83925 1.15625 11.09375 1.15625 11.09375 C 1.10325 11.18475 1.0625 11.60575 1.0625 11.71875 L 1.0625 16.375 C 1.0625 16.719 1.3445 17 1.6875 17 L 3.40625 17 C 3.74925 17 4.03125 16.719 4.03125 16.375 L 4.03125 15.5 L 6.65625 15.5 C 6.94125 14.798 7.66425 14.3125 8.40625 14.3125 C 8.77525 13.2995 9.13425 12.37975 9.28125 12.09375 C 9.74325 11.19775 10.67025 10.932 11.28125 10.75 C 11.38325 10.72 11.50075 10.68725 11.59375 10.65625 C 11.78475 10.59625 12.73825 10.34375 15.53125 10.34375 C 15.55425 10.34375 15.57175 10.34375 15.59375 10.34375 C 15.58575 10.32275 15.5705 10.30325 15.5625 10.28125 L 16.28125 10.28125 C 16.62425 10.28125 16.8045 9.87525 16.6875 9.53125 L 16.46875 8.90625 C 16.35075 8.56325 15.969 8.3125 15.625 8.3125 L 14.90625 8.3125 C 14.45425 7.0285 13.99775 5.88125 13.84375 5.53125 C 13.55975 4.88525 12.625 4.73575 12.125 4.59375 C 12.125 4.59375 11.31625 4.34375 8.53125 4.34375 z M 8.53125 5.5 C 12.74325 5.5 12.83275 6.21075 12.84375 6.21875 C 12.97375 6.58975 13.49425 7.37275 13.90625 8.96875 C 13.90625 8.96875 12.13125 9.53125 8.53125 9.53125 C 4.93125 9.53125 3.125 8.96875 3.125 8.96875 C 3.56 7.23775 4.05125 6.5845 4.15625 6.3125 C 4.24025 6.1145 4.31925 5.5 8.53125 5.5 z M 20.8125 7.40625 C 21.1555 7.40525 21.5 7.43225 21.5 8.03125 L 21.5 8.65625 C 21.5 9.16925 20.738 9.28125 20 9.28125 L 19.1875 9.28125 C 18.5655 9.28125 18.375 9.109 18.375 8.75 C 18.375 8.362 18.93025 8.1705 19.40625 7.9375 C 19.84325 7.7235 20.4775 7.40625 20.8125 7.40625 z M 15.53125 11.34375 C 12.74625 11.34375 11.90625 11.59375 11.90625 11.59375 C 11.32125 11.79275 10.5105 11.9355 10.1875 12.5625 C 10.0585 12.8125 9.585 13.9885 9.125 15.3125 L 8.40625 15.3125 C 8.06325 15.3125 7.6805 15.56225 7.5625 15.90625 L 7.34375 16.53125 C 7.22575 16.87425 7.406 17.28125 7.75 17.28125 L 8.46875 17.28125 C 8.27875 17.83925 8.15625 18.09375 8.15625 18.09375 C 8.10325 18.18475 8.0625 18.60575 8.0625 18.71875 L 8.0625 23.375 C 8.0625 23.719 8.3445 24 8.6875 24 L 10.40625 24 C 10.74925 24 11.03125 23.719 11.03125 23.375 L 11.03125 22.5 L 20 22.5 L 20 23.375 C 20 23.718 20.281 24 20.625 24 L 22.34375 24 C 22.68675 24 22.96875 23.719 22.96875 23.375 L 22.96875 18.71875 C 22.96875 18.60575 22.928 18.18475 22.875 18.09375 C 22.875 18.09375 22.7565 17.83925 22.5625 17.28125 L 23.28125 17.28125 C 23.62425 17.28125 23.8055 16.87425 23.6875 16.53125 L 23.46875 15.90625 C 23.35075 15.56325 22.969 15.3125 22.625 15.3125 L 21.90625 15.3125 C 21.45425 14.0285 20.99775 12.88125 20.84375 12.53125 C 20.55975 11.88525 19.625 11.73575 19.125 11.59375 C 19.125 11.59375 18.31625 11.34375 15.53125 11.34375 z M 2.96875 11.40625 C 3.0467969 11.394812 3.133 11.40625 3.21875 11.40625 C 3.55375 11.40625 4.21925 11.7245 4.65625 11.9375 C 5.13325 12.1705 5.65625 12.361 5.65625 12.75 C 5.65625 13.11 5.46575 13.28125 4.84375 13.28125 L 4.03125 13.28125 C 3.29325 13.28125 2.5625 13.17025 2.5625 12.65625 L 2.5625 12.03125 C 2.5625 11.58125 2.7346094 11.440563 2.96875 11.40625 z M 15.53125 12.5 C 19.74325 12.5 19.83275 13.21075 19.84375 13.21875 C 19.97375 13.58975 20.49425 14.37275 20.90625 15.96875 C 20.90625 15.96875 19.13125 16.53125 15.53125 16.53125 C 11.93125 16.53125 10.125 15.96875 10.125 15.96875 C 10.561 14.23775 11.05225 13.5845 11.15625 13.3125 C 11.24025 13.1145 11.31925 12.5 15.53125 12.5 z M 9.96875 18.40625 C 10.046938 18.394813 10.13275 18.40625 10.21875 18.40625 C 10.55375 18.40625 11.21925 18.7245 11.65625 18.9375 C 12.13325 19.1705 12.65625 19.361 12.65625 19.75 C 12.65625 20.11 12.46575 20.28125 11.84375 20.28125 L 11.03125 20.28125 C 10.29325 20.28125 9.5625 20.17025 9.5625 19.65625 L 9.5625 19.03125 C 9.5625 18.58125 9.7341875 18.440562 9.96875 18.40625 z M 20.8125 18.40625 C 21.1555 18.40625 21.5 18.43125 21.5 19.03125 L 21.5 19.65625 C 21.5 20.16925 20.738 20.28125 20 20.28125 L 19.1875 20.28125 C 18.5655 20.28125 18.375 20.109 18.375 19.75 C 18.375 19.361 18.92925 19.1705 19.40625 18.9375 C 19.84325 18.7235 20.4775 18.40625 20.8125 18.40625 z"/>
</svg>
